<svg width="27" height="27" viewBox="0 0 27 27" fill="none" xmlns="http://www.w3.org/2000/svg">
<path d="M13.244 1.65527C10.83 1.65812 8.51569 2.61835 6.80872 4.32531C5.10175 6.03228 4.14153 8.34661 4.13868 10.7606C4.13579 12.7334 4.78018 14.6526 5.973 16.2238C5.973 16.2238 6.22132 16.5508 6.26188 16.598L13.244 24.8325L20.2295 16.5938C20.2659 16.55 20.5151 16.2238 20.5151 16.2238L20.5159 16.2214C21.7081 14.6508 22.3522 12.7325 22.3494 10.7606C22.3465 8.34661 21.3863 6.03228 19.6793 4.32531C17.9724 2.61835 15.658 1.65812 13.244 1.65527ZM13.244 14.0717C12.5892 14.0717 11.949 13.8775 11.4045 13.5137C10.86 13.1498 10.4356 12.6327 10.185 12.0277C9.93443 11.4227 9.86886 10.757 9.99662 10.1147C10.1244 9.4724 10.4397 8.88242 10.9028 8.41937C11.3658 7.95631 11.9558 7.64097 12.5981 7.51321C13.2404 7.38545 13.9061 7.45102 14.5111 7.70163C15.1161 7.95223 15.6332 8.37661 15.9971 8.92111C16.3609 9.46561 16.5551 10.1058 16.5551 10.7606C16.554 11.6384 16.2048 12.48 15.5841 13.1007C14.9634 13.7214 14.1218 14.0706 13.244 14.0717Z" fill="#F2C938"/>
</svg>
