<svg width="202" height="25" viewBox="0 0 202 25" fill="none" xmlns="http://www.w3.org/2000/svg">
<path d="M19.1671 11.041H21.0838C21.0838 6.12478 17.3722 2.41699 12.4492 2.41699V4.33366C16.342 4.33366 19.1671 7.15403 19.1671 11.041Z" fill="#FFD645"/>
<path d="M12.4586 8.16681C14.474 8.16681 15.3336 9.02644 15.3336 11.0418H17.2503C17.2503 7.95119 15.5492 6.25015 12.4586 6.25015V8.16681ZM15.738 13.383C15.5539 13.2157 15.3119 13.1264 15.0632 13.1341C14.8144 13.1418 14.5784 13.2458 14.405 13.4242L12.1117 15.7827C11.5597 15.6773 10.4499 15.3313 9.3076 14.1919C8.16527 13.0486 7.81931 11.9359 7.71677 11.3878L10.0733 9.09352C10.252 8.92019 10.3562 8.68414 10.3638 8.43535C10.3715 8.18655 10.2821 7.94452 10.1145 7.76048L6.57348 3.86677C6.40581 3.68216 6.17278 3.57017 5.92388 3.5546C5.67497 3.53904 5.4298 3.62111 5.24044 3.7834L3.16085 5.56686C2.99517 5.73314 2.89628 5.95445 2.88294 6.18881C2.86856 6.4284 2.59448 12.1036 6.99515 16.5062C10.8342 20.3444 15.6431 20.6251 16.9676 20.6251C17.1611 20.6251 17.28 20.6194 17.3116 20.6175C17.5459 20.6044 17.7671 20.505 17.9326 20.3386L19.7151 18.2581C19.8775 18.0688 19.9597 17.8237 19.9444 17.5748C19.929 17.3259 19.8172 17.0928 19.6327 16.925L15.738 13.383Z" fill="#FFD645"/>
<path d="M37.06 12.72H40.84V8.6H42.44V12.72H46.22V14.3H42.44V18.44H40.84V14.3H37.06V12.72ZM50.5491 19.5C50.6291 18.4333 50.8157 17.3133 51.1091 16.14C51.4157 14.9533 51.7891 13.8067 52.2291 12.7C52.6691 11.58 53.1491 10.5467 53.6691 9.6C54.2024 8.64 54.7224 7.86 55.2291 7.26H48.4891V5.64H57.3091V7.18C56.8691 7.68667 56.3824 8.38667 55.8491 9.28C55.3157 10.16 54.8091 11.1533 54.3291 12.26C53.8624 13.3533 53.4557 14.5267 53.1091 15.78C52.7757 17.02 52.5691 18.26 52.4891 19.5H50.5491ZM61.9981 13.52C61.9981 15.2267 62.2448 16.8067 62.7381 18.26C63.2315 19.7133 63.9581 21.06 64.9181 22.3L63.5981 23.2C62.5581 21.9333 61.7181 20.48 61.0781 18.84C60.4515 17.1867 60.1381 15.4133 60.1381 13.52C60.1381 11.6267 60.4515 9.86 61.0781 8.22C61.7181 6.56667 62.5581 5.10667 63.5981 3.84L64.9181 4.74C63.9581 5.98 63.2315 7.32667 62.7381 8.78C62.2448 10.2333 61.9981 11.8133 61.9981 13.52ZM75.2425 15.9C75.2425 16.46 75.1425 16.98 74.9425 17.46C74.7558 17.9267 74.4692 18.34 74.0825 18.7C73.7092 19.0467 73.2358 19.3133 72.6625 19.5C72.0892 19.7 71.4292 19.8 70.6825 19.8C69.8158 19.8 69.0892 19.68 68.5025 19.44C67.9292 19.1867 67.4692 18.8733 67.1225 18.5C66.7758 18.1267 66.5292 17.72 66.3825 17.28C66.2358 16.8267 66.1625 16.4 66.1625 16C66.1625 15.6133 66.2225 15.2467 66.3425 14.9C66.4758 14.54 66.6425 14.2067 66.8425 13.9C67.0558 13.5933 67.2958 13.32 67.5625 13.08C67.8425 12.8267 68.1358 12.6067 68.4425 12.42C67.1358 11.6733 66.4825 10.5733 66.4825 9.12C66.4825 8.61333 66.5825 8.13333 66.7825 7.68C66.9825 7.21333 67.2625 6.80667 67.6225 6.46C67.9958 6.11333 68.4425 5.84 68.9625 5.64C69.4825 5.42667 70.0625 5.32 70.7025 5.32C71.4492 5.32 72.0892 5.43333 72.6225 5.66C73.1558 5.88667 73.5892 6.18 73.9225 6.54C74.2692 6.88667 74.5158 7.27333 74.6625 7.7C74.8225 8.12667 74.9025 8.54 74.9025 8.94C74.9025 9.32667 74.8425 9.69333 74.7225 10.04C74.6158 10.3733 74.4625 10.6867 74.2625 10.98C74.0758 11.2733 73.8558 11.5333 73.6025 11.76C73.3625 11.9867 73.1092 12.1867 72.8425 12.36C74.4158 13.1067 75.2158 14.2867 75.2425 15.9ZM68.0425 16.02C68.0425 16.26 68.0825 16.5133 68.1625 16.78C68.2558 17.0333 68.4092 17.2733 68.6225 17.5C68.8358 17.7133 69.1092 17.8933 69.4425 18.04C69.7758 18.1867 70.1958 18.26 70.7025 18.26C71.1558 18.26 71.5492 18.1933 71.8825 18.06C72.2292 17.9267 72.5092 17.76 72.7225 17.56C72.9358 17.3467 73.0958 17.1067 73.2025 16.84C73.3092 16.5733 73.3625 16.3 73.3625 16.02C73.3625 15.5933 73.2825 15.22 73.1225 14.9C72.9625 14.58 72.7292 14.3 72.4225 14.06C72.1292 13.82 71.7692 13.62 71.3425 13.46C70.9292 13.2867 70.4558 13.14 69.9225 13.02C69.3225 13.3533 68.8558 13.7667 68.5225 14.26C68.2025 14.7533 68.0425 15.34 68.0425 16.02ZM73.0425 8.92C73.0425 8.72 72.9958 8.5 72.9025 8.26C72.8225 8.02 72.6892 7.8 72.5025 7.6C72.3158 7.38667 72.0758 7.21333 71.7825 7.08C71.4892 6.93333 71.1292 6.86 70.7025 6.86C70.2758 6.86 69.9092 6.92667 69.6025 7.06C69.3092 7.19333 69.0692 7.36667 68.8825 7.58C68.6958 7.78 68.5558 8.00667 68.4625 8.26C68.3825 8.5 68.3425 8.74 68.3425 8.98C68.3425 9.27333 68.3958 9.56667 68.5025 9.86C68.6092 10.1533 68.7758 10.4267 69.0025 10.68C69.2292 10.9333 69.5225 11.16 69.8825 11.36C70.2558 11.56 70.6958 11.72 71.2025 11.84C71.7625 11.5067 72.2092 11.12 72.5425 10.68C72.8758 10.2267 73.0425 9.64 73.0425 8.92ZM78.2116 8.5C78.9716 8.20667 79.7116 7.83333 80.4316 7.38C81.1516 6.91333 81.8116 6.33333 82.4116 5.64H83.7316V19.5H81.8716V8.22C81.7116 8.36667 81.5116 8.52 81.2716 8.68C81.0449 8.84 80.7916 8.99333 80.5116 9.14C80.2449 9.28667 79.9582 9.42667 79.6516 9.56C79.3582 9.69333 79.0716 9.80667 78.7916 9.9L78.2116 8.5ZM96.9806 9.18C96.9806 9.66 96.8806 10.1267 96.6806 10.58C96.494 11.02 96.2406 11.46 95.9206 11.9C95.6006 12.3267 95.2406 12.7533 94.8406 13.18C94.4406 13.5933 94.0406 14 93.6406 14.4C93.414 14.6267 93.1473 14.8933 92.8406 15.2C92.5473 15.5067 92.2673 15.8267 92.0006 16.16C91.734 16.4933 91.5073 16.8133 91.3206 17.12C91.1473 17.4267 91.0606 17.6933 91.0606 17.92H97.4406V19.5H89.0406C89.0273 19.42 89.0206 19.34 89.0206 19.26C89.0206 19.18 89.0206 19.1067 89.0206 19.04C89.0206 18.4133 89.1206 17.8333 89.3206 17.3C89.534 16.7533 89.8073 16.24 90.1406 15.76C90.474 15.28 90.8473 14.8267 91.2606 14.4C91.674 13.9733 92.0806 13.56 92.4806 13.16C92.814 12.84 93.1273 12.5267 93.4206 12.22C93.7273 11.9 93.994 11.5867 94.2206 11.28C94.4606 10.96 94.6473 10.6333 94.7806 10.3C94.9273 9.96667 95.0006 9.61333 95.0006 9.24C95.0006 8.84 94.934 8.5 94.8006 8.22C94.6806 7.94 94.514 7.70667 94.3006 7.52C94.0873 7.33333 93.834 7.2 93.5406 7.12C93.2606 7.02667 92.9606 6.98 92.6406 6.98C92.254 6.98 91.9006 7.03333 91.5806 7.14C91.2606 7.24667 90.974 7.37333 90.7206 7.52C90.4673 7.65333 90.254 7.8 90.0806 7.96C89.9073 8.10667 89.774 8.22 89.6806 8.3L88.7606 6.98C88.8806 6.84667 89.0606 6.68667 89.3006 6.5C89.5406 6.3 89.8273 6.11333 90.1606 5.94C90.494 5.76667 90.8673 5.62 91.2806 5.5C91.694 5.38 92.1406 5.32 92.6206 5.32C94.074 5.32 95.1606 5.66 95.8806 6.34C96.614 7.00667 96.9806 7.95333 96.9806 9.18ZM101.99 13.52C101.99 11.8133 101.743 10.2333 101.25 8.78C100.756 7.32667 100.03 5.98 99.0697 4.74L100.39 3.84C101.43 5.10667 102.263 6.56667 102.89 8.22C103.53 9.86 103.85 11.6267 103.85 13.52C103.85 15.4133 103.53 17.1867 102.89 18.84C102.263 20.48 101.43 21.9333 100.39 23.2L99.0697 22.3C100.03 21.06 100.756 19.7133 101.25 18.26C101.743 16.8067 101.99 15.2267 101.99 13.52ZM114.023 10.98C116.036 11.06 117.51 11.5 118.443 12.3C119.39 13.1 119.863 14.1867 119.863 15.56C119.863 16.1733 119.756 16.74 119.543 17.26C119.343 17.78 119.03 18.2267 118.603 18.6C118.19 18.9733 117.663 19.2667 117.023 19.48C116.383 19.6933 115.623 19.8 114.743 19.8C114.396 19.8 114.043 19.7733 113.683 19.72C113.323 19.6667 112.99 19.6 112.683 19.52C112.376 19.44 112.103 19.36 111.863 19.28C111.623 19.2 111.45 19.1333 111.343 19.08L111.703 17.46C111.93 17.5667 112.296 17.7067 112.803 17.88C113.323 18.0533 113.956 18.14 114.703 18.14C115.303 18.14 115.803 18.0733 116.203 17.94C116.616 17.8067 116.95 17.6267 117.203 17.4C117.456 17.1733 117.636 16.9133 117.743 16.62C117.863 16.3133 117.923 15.9933 117.923 15.66C117.923 15.1533 117.836 14.7067 117.663 14.32C117.49 13.92 117.183 13.5867 116.743 13.32C116.303 13.0533 115.716 12.8533 114.983 12.72C114.25 12.5733 113.323 12.5 112.203 12.5C112.283 11.8467 112.343 11.2333 112.383 10.66C112.436 10.0867 112.483 9.52667 112.523 8.98C112.563 8.43333 112.596 7.89333 112.623 7.36C112.65 6.81333 112.676 6.24 112.703 5.64H119.383V7.22H114.323C114.31 7.42 114.29 7.69333 114.263 8.04C114.236 8.37333 114.21 8.72667 114.183 9.1C114.156 9.46 114.13 9.81333 114.103 10.16C114.076 10.5067 114.05 10.78 114.023 10.98ZM122.332 12.56C122.332 10.24 122.739 8.45333 123.552 7.2C124.379 5.94667 125.519 5.32 126.972 5.32C128.425 5.32 129.559 5.94667 130.372 7.2C131.199 8.45333 131.612 10.24 131.612 12.56C131.612 14.88 131.199 16.6667 130.372 17.92C129.559 19.1733 128.425 19.8 126.972 19.8C125.519 19.8 124.379 19.1733 123.552 17.92C122.739 16.6667 122.332 14.88 122.332 12.56ZM129.652 12.56C129.652 11.8 129.605 11.08 129.512 10.4C129.432 9.72 129.285 9.12667 129.072 8.62C128.872 8.11333 128.599 7.71333 128.252 7.42C127.905 7.11333 127.479 6.96 126.972 6.96C126.465 6.96 126.039 7.11333 125.692 7.42C125.345 7.71333 125.065 8.11333 124.852 8.62C124.652 9.12667 124.505 9.72 124.412 10.4C124.332 11.08 124.292 11.8 124.292 12.56C124.292 13.32 124.332 14.04 124.412 14.72C124.505 15.4 124.652 15.9933 124.852 16.5C125.065 17.0067 125.345 17.4133 125.692 17.72C126.039 18.0133 126.465 18.16 126.972 18.16C127.479 18.16 127.905 18.0133 128.252 17.72C128.599 17.4133 128.872 17.0067 129.072 16.5C129.285 15.9933 129.432 15.4 129.512 14.72C129.605 14.04 129.652 13.32 129.652 12.56ZM135.881 19.5C135.961 18.4333 136.148 17.3133 136.441 16.14C136.748 14.9533 137.121 13.8067 137.561 12.7C138.001 11.58 138.481 10.5467 139.001 9.6C139.534 8.64 140.054 7.86 140.561 7.26H133.821V5.64H142.641V7.18C142.201 7.68667 141.714 8.38667 141.181 9.28C140.648 10.16 140.141 11.1533 139.661 12.26C139.194 13.3533 138.788 14.5267 138.441 15.78C138.108 17.02 137.901 18.26 137.821 19.5H135.881ZM144.43 12.64H149.37V14.38H144.43V12.64ZM151.147 13.94C151.147 12.5933 151.333 11.4067 151.707 10.38C152.08 9.34 152.607 8.46667 153.287 7.76C153.98 7.05333 154.813 6.52 155.787 6.16C156.773 5.78667 157.88 5.59333 159.107 5.58L159.247 7.14C158.46 7.15333 157.74 7.24 157.087 7.4C156.447 7.56 155.873 7.81333 155.367 8.16C154.86 8.50667 154.433 8.96 154.087 9.52C153.74 10.0667 153.48 10.7467 153.307 11.56C153.653 11.4 154.04 11.2667 154.467 11.16C154.907 11.0533 155.36 11 155.827 11C156.613 11 157.28 11.12 157.827 11.36C158.373 11.6 158.82 11.92 159.167 12.32C159.513 12.7067 159.76 13.16 159.907 13.68C160.067 14.1867 160.147 14.72 160.147 15.28C160.147 15.7867 160.06 16.3067 159.887 16.84C159.713 17.3733 159.447 17.86 159.087 18.3C158.74 18.74 158.293 19.1 157.747 19.38C157.2 19.66 156.553 19.8 155.807 19.8C154.287 19.8 153.127 19.28 152.327 18.24C151.54 17.2 151.147 15.7667 151.147 13.94ZM155.627 12.52C155.16 12.52 154.727 12.5667 154.327 12.66C153.927 12.74 153.527 12.8667 153.127 13.04C153.113 13.1867 153.1 13.34 153.087 13.5C153.087 13.6467 153.087 13.7933 153.087 13.94C153.087 14.5267 153.127 15.08 153.207 15.6C153.287 16.12 153.427 16.58 153.627 16.98C153.84 17.3667 154.12 17.68 154.467 17.92C154.813 18.1467 155.253 18.26 155.787 18.26C156.227 18.26 156.6 18.1667 156.907 17.98C157.213 17.7933 157.467 17.5533 157.667 17.26C157.867 16.9667 158.007 16.6533 158.087 16.32C158.18 15.9733 158.227 15.64 158.227 15.32C158.227 14.4133 158.007 13.72 157.567 13.24C157.14 12.76 156.493 12.52 155.627 12.52ZM165.156 10.98C167.169 11.06 168.642 11.5 169.576 12.3C170.522 13.1 170.996 14.1867 170.996 15.56C170.996 16.1733 170.889 16.74 170.676 17.26C170.476 17.78 170.162 18.2267 169.736 18.6C169.322 18.9733 168.796 19.2667 168.156 19.48C167.516 19.6933 166.756 19.8 165.876 19.8C165.529 19.8 165.176 19.7733 164.816 19.72C164.456 19.6667 164.122 19.6 163.816 19.52C163.509 19.44 163.236 19.36 162.996 19.28C162.756 19.2 162.582 19.1333 162.476 19.08L162.836 17.46C163.062 17.5667 163.429 17.7067 163.936 17.88C164.456 18.0533 165.089 18.14 165.836 18.14C166.436 18.14 166.936 18.0733 167.336 17.94C167.749 17.8067 168.082 17.6267 168.336 17.4C168.589 17.1733 168.769 16.9133 168.876 16.62C168.996 16.3133 169.056 15.9933 169.056 15.66C169.056 15.1533 168.969 14.7067 168.796 14.32C168.622 13.92 168.316 13.5867 167.876 13.32C167.436 13.0533 166.849 12.8533 166.116 12.72C165.382 12.5733 164.456 12.5 163.336 12.5C163.416 11.8467 163.476 11.2333 163.516 10.66C163.569 10.0867 163.616 9.52667 163.656 8.98C163.696 8.43333 163.729 7.89333 163.756 7.36C163.782 6.81333 163.809 6.24 163.836 5.64H170.516V7.22H165.456C165.442 7.42 165.422 7.69333 165.396 8.04C165.369 8.37333 165.342 8.72667 165.316 9.1C165.289 9.46 165.262 9.81333 165.236 10.16C165.209 10.5067 165.182 10.78 165.156 10.98ZM172.985 12.64H177.925V14.38H172.985V12.64ZM188.621 15.9C188.621 16.46 188.521 16.98 188.321 17.46C188.135 17.9267 187.848 18.34 187.461 18.7C187.088 19.0467 186.615 19.3133 186.041 19.5C185.468 19.7 184.808 19.8 184.061 19.8C183.195 19.8 182.468 19.68 181.881 19.44C181.308 19.1867 180.848 18.8733 180.501 18.5C180.155 18.1267 179.908 17.72 179.761 17.28C179.615 16.8267 179.541 16.4 179.541 16C179.541 15.6133 179.601 15.2467 179.721 14.9C179.855 14.54 180.021 14.2067 180.221 13.9C180.435 13.5933 180.675 13.32 180.941 13.08C181.221 12.8267 181.515 12.6067 181.821 12.42C180.515 11.6733 179.861 10.5733 179.861 9.12C179.861 8.61333 179.961 8.13333 180.161 7.68C180.361 7.21333 180.641 6.80667 181.001 6.46C181.375 6.11333 181.821 5.84 182.341 5.64C182.861 5.42667 183.441 5.32 184.081 5.32C184.828 5.32 185.468 5.43333 186.001 5.66C186.535 5.88667 186.968 6.18 187.301 6.54C187.648 6.88667 187.895 7.27333 188.041 7.7C188.201 8.12667 188.281 8.54 188.281 8.94C188.281 9.32667 188.221 9.69333 188.101 10.04C187.995 10.3733 187.841 10.6867 187.641 10.98C187.455 11.2733 187.235 11.5333 186.981 11.76C186.741 11.9867 186.488 12.1867 186.221 12.36C187.795 13.1067 188.595 14.2867 188.621 15.9ZM181.421 16.02C181.421 16.26 181.461 16.5133 181.541 16.78C181.635 17.0333 181.788 17.2733 182.001 17.5C182.215 17.7133 182.488 17.8933 182.821 18.04C183.155 18.1867 183.575 18.26 184.081 18.26C184.535 18.26 184.928 18.1933 185.261 18.06C185.608 17.9267 185.888 17.76 186.101 17.56C186.315 17.3467 186.475 17.1067 186.581 16.84C186.688 16.5733 186.741 16.3 186.741 16.02C186.741 15.5933 186.661 15.22 186.501 14.9C186.341 14.58 186.108 14.3 185.801 14.06C185.508 13.82 185.148 13.62 184.721 13.46C184.308 13.2867 183.835 13.14 183.301 13.02C182.701 13.3533 182.235 13.7667 181.901 14.26C181.581 14.7533 181.421 15.34 181.421 16.02ZM186.421 8.92C186.421 8.72 186.375 8.5 186.281 8.26C186.201 8.02 186.068 7.8 185.881 7.6C185.695 7.38667 185.455 7.21333 185.161 7.08C184.868 6.93333 184.508 6.86 184.081 6.86C183.655 6.86 183.288 6.92667 182.981 7.06C182.688 7.19333 182.448 7.36667 182.261 7.58C182.075 7.78 181.935 8.00667 181.841 8.26C181.761 8.5 181.721 8.74 181.721 8.98C181.721 9.27333 181.775 9.56667 181.881 9.86C181.988 10.1533 182.155 10.4267 182.381 10.68C182.608 10.9333 182.901 11.16 183.261 11.36C183.635 11.56 184.075 11.72 184.581 11.84C185.141 11.5067 185.588 11.12 185.921 10.68C186.255 10.2267 186.421 9.64 186.421 8.92ZM190.99 13.94C190.99 12.5933 191.177 11.4067 191.55 10.38C191.924 9.34 192.45 8.46667 193.13 7.76C193.824 7.05333 194.657 6.52 195.63 6.16C196.617 5.78667 197.724 5.59333 198.95 5.58L199.09 7.14C198.304 7.15333 197.584 7.24 196.93 7.4C196.29 7.56 195.717 7.81333 195.21 8.16C194.704 8.50667 194.277 8.96 193.93 9.52C193.584 10.0667 193.324 10.7467 193.15 11.56C193.497 11.4 193.884 11.2667 194.31 11.16C194.75 11.0533 195.204 11 195.67 11C196.457 11 197.124 11.12 197.67 11.36C198.217 11.6 198.664 11.92 199.01 12.32C199.357 12.7067 199.604 13.16 199.75 13.68C199.91 14.1867 199.99 14.72 199.99 15.28C199.99 15.7867 199.904 16.3067 199.73 16.84C199.557 17.3733 199.29 17.86 198.93 18.3C198.584 18.74 198.137 19.1 197.59 19.38C197.044 19.66 196.397 19.8 195.65 19.8C194.13 19.8 192.97 19.28 192.17 18.24C191.384 17.2 190.99 15.7667 190.99 13.94ZM195.47 12.52C195.004 12.52 194.57 12.5667 194.17 12.66C193.77 12.74 193.37 12.8667 192.97 13.04C192.957 13.1867 192.944 13.34 192.93 13.5C192.93 13.6467 192.93 13.7933 192.93 13.94C192.93 14.5267 192.97 15.08 193.05 15.6C193.13 16.12 193.27 16.58 193.47 16.98C193.684 17.3667 193.964 17.68 194.31 17.92C194.657 18.1467 195.097 18.26 195.63 18.26C196.07 18.26 196.444 18.1667 196.75 17.98C197.057 17.7933 197.31 17.5533 197.51 17.26C197.71 16.9667 197.85 16.6533 197.93 16.32C198.024 15.9733 198.07 15.64 198.07 15.32C198.07 14.4133 197.85 13.72 197.41 13.24C196.984 12.76 196.337 12.52 195.47 12.52Z" fill="white"/>
<path d="M36 22.74H201.01V24.32H36V22.74Z" fill="white"/>
<a href="tel:88125076586">
<rect fill="black" fill-opacity="0" y="0.0100012" width="165.01" height="22.98"/>
</a>
</svg>
